<mxfile host="app.diagrams.net" agent="Mozilla/5.0 (Windows NT 10.0; Win64; x64) AppleWebKit/537.36 (KHTML, like Gecko) Chrome/135.0.0.0 Safari/537.36" version="26.2.12">
  <diagram name="Page-1" id="VCvHZR2WXto5X7LXfwCY">
    <mxGraphModel dx="1316" dy="675" grid="1" gridSize="10" guides="1" tooltips="1" connect="1" arrows="1" fold="1" page="1" pageScale="1" pageWidth="1169" pageHeight="827" math="0" shadow="0">
      <root>
        <mxCell id="0" />
        <mxCell id="1" parent="0" />
        <mxCell id="N-OLMTnW74gIgdQo4pyC-1" value="AIM" style="rounded=0;whiteSpace=wrap;html=1;" parent="1" vertex="1">
          <mxGeometry x="80" y="260" width="120" height="60" as="geometry" />
        </mxCell>
        <mxCell id="N-OLMTnW74gIgdQo4pyC-2" value="&lt;b&gt;AWS Trusted Advisor&lt;/b&gt;&lt;div&gt;Tester automat gearet&lt;/div&gt;&lt;div&gt;-Provisioneret korrekt&lt;/div&gt;&lt;div&gt;-EC2 performance&lt;/div&gt;" style="rounded=0;whiteSpace=wrap;html=1;" parent="1" vertex="1">
          <mxGeometry x="80" y="60" width="160" height="80" as="geometry" />
        </mxCell>
        <mxCell id="N-OLMTnW74gIgdQo4pyC-3" value="CloudFront" style="rounded=0;whiteSpace=wrap;html=1;" parent="1" vertex="1">
          <mxGeometry x="80" y="170" width="120" height="60" as="geometry" />
        </mxCell>
        <mxCell id="N-OLMTnW74gIgdQo4pyC-4" value="AWS Organization&lt;div&gt;Policies&lt;/div&gt;&lt;div&gt;Roller&lt;/div&gt;&lt;div&gt;Billing&lt;/div&gt;" style="rounded=0;whiteSpace=wrap;html=1;" parent="1" vertex="1">
          <mxGeometry x="80" y="353.5" width="120" height="60" as="geometry" />
        </mxCell>
        <mxCell id="N-OLMTnW74gIgdQo4pyC-5" value="Glacier&lt;div&gt;(arkivering)&lt;/div&gt;" style="rounded=0;whiteSpace=wrap;html=1;" parent="1" vertex="1">
          <mxGeometry x="80" y="440" width="120" height="60" as="geometry" />
        </mxCell>
        <mxCell id="N-OLMTnW74gIgdQo4pyC-7" value="&lt;b&gt;Amazon&amp;nbsp;&lt;/b&gt;&lt;b style=&quot;background-color: transparent; color: light-dark(rgb(0, 0, 0), rgb(255, 255, 255));&quot;&gt;S3&lt;/b&gt;&lt;div&gt;&lt;div&gt;-object level storage, dvs. forskellige typer og ustruktureret&lt;/div&gt;&lt;/div&gt;" style="rounded=0;whiteSpace=wrap;html=1;" parent="1" vertex="1">
          <mxGeometry x="240" y="490" width="120" height="60" as="geometry" />
        </mxCell>
        <mxCell id="N-OLMTnW74gIgdQo4pyC-8" value="DynamoDB" style="rounded=0;whiteSpace=wrap;html=1;" parent="1" vertex="1">
          <mxGeometry x="410" y="520" width="120" height="60" as="geometry" />
        </mxCell>
        <mxCell id="N-OLMTnW74gIgdQo4pyC-9" value="Amazom (DMS)" style="rounded=0;whiteSpace=wrap;html=1;" parent="1" vertex="1">
          <mxGeometry x="585" y="520" width="120" height="60" as="geometry" />
        </mxCell>
        <mxCell id="N-OLMTnW74gIgdQo4pyC-10" value="Elasticitet er har glæde af" style="rounded=0;whiteSpace=wrap;html=1;" parent="1" vertex="1">
          <mxGeometry x="880" y="400" width="120" height="60" as="geometry" />
        </mxCell>
        <mxCell id="N-OLMTnW74gIgdQo4pyC-11" value="Scaling er noget man aktivere/bruger/gør" style="rounded=0;whiteSpace=wrap;html=1;" parent="1" vertex="1">
          <mxGeometry x="880" y="480" width="120" height="60" as="geometry" />
        </mxCell>
        <mxCell id="YO7A1a3UFihamz9B0ZOD-1" value="&lt;b&gt;Amazon EBS&lt;/b&gt;&lt;div&gt;Elastic Block Storage, ensartet og indekseret, hurtigt&lt;/div&gt;" style="rounded=0;whiteSpace=wrap;html=1;" vertex="1" parent="1">
          <mxGeometry x="240" y="414" width="120" height="60" as="geometry" />
        </mxCell>
      </root>
    </mxGraphModel>
  </diagram>
</mxfile>
